<?xml version="1.0" encoding="utf-8"?>
<!-- Generator: Adobe Illustrator 16.0.0, SVG Export Plug-In . SVG Version: 6.00 Build 0)  -->
<!DOCTYPE svg PUBLIC "-//W3C//DTD SVG 1.1//EN" "http://www.w3.org/Graphics/SVG/1.1/DTD/svg11.dtd">
<svg version="1.1" id="Layer_1" xmlns="http://www.w3.org/2000/svg" xmlns:xlink="http://www.w3.org/1999/xlink" x="0px" y="0px"
	 width="136.833px" height="136.833px" viewBox="0 0 136.833 136.833" style="enable-background:new 0 0 136.833 136.833;"
	 xml:space="preserve">
<style type="text/css">
<![CDATA[
	.st0{fill:#46898D;}
	.st1{fill:#48888C;}
	.st2{fill:#48A1AF;}
	.st3{fill-rule:evenodd;clip-rule:evenodd;fill:#3F3E3D;}
	.st4{fill:#7F807D;}
	.st5{fill:#E26917;}
	.st6{fill:#E2A976;}
	.st7{fill:#E57428;}
	.st8{fill:#4ABC96;}
	.st9{fill:#E5AA17;}
	.st10{fill:#E5BDA1;}
	.st11{fill-rule:evenodd;clip-rule:evenodd;fill:#DAECEF;}
	.st12{fill:#4C4B49;}
	.st13{fill:#4D4C4C;}
	.st14{fill:#B16227;}
	.st15{fill:#B2723A;}
	.st16{fill:#1A5B37;}
	.st17{fill:#EA4949;}
	.st18{fill:#EAC2A0;}
	.st19{fill:#EACE57;}
	.st20{fill:#EACF60;}
	.st21{fill:#509BA3;}
	.st22{fill:#EE6D6D;}
	.st23{fill:#EED877;}
	.st24{fill:#557F0D;}
	.st25{fill:#BA7842;}
	.st26{fill:#8B401E;}
	.st27{fill:#BE7C3F;}
	.st28{fill:#22A85B;}
	.st29{fill-rule:evenodd;clip-rule:evenodd;fill:#827159;}
	.st30{fill:#F47C2C;}
	.st31{fill:#F4C82E;}
	.st32{fill:#F4E12B;}
	.st33{fill:#5A8AA3;}
	.st34{fill:#F5C82D;}
	.st35{fill:#F69656;}
	.st36{fill:#F7A1A1;}
	.st37{fill:#5D250E;}
	.st38{fill:#F98646;}
	.st39{fill:#C17E42;}
	.st40{fill:#93783D;}
	.st41{fill:#C4C3B7;}
	.st42{fill:#C68A4F;}
	.st43{fill:#2D734E;}
	.st44{opacity:0.6;}
	.st45{fill:#2FA379;}
	.st46{fill:#FFFFFF;}
	.st47{fill:#64A80D;}
	.st48{fill:none;}
	.st49{fill:#66321C;}
	.st50{fill-rule:evenodd;clip-rule:evenodd;fill:#5B4F3F;}
	.st51{fill:#9B7542;}
	.st52{fill:#CD9251;}
	.st53{fill:#9E7640;}
	.st54{fill:#9EDADA;}
	.st55{fill:#CE0202;}
	.st56{fill:#CE945F;}
	.st57{fill:#9F6029;}
	.st58{fill:#CEA16F;}
	.st59{fill:#CEA272;}
	.st60{fill:#333333;}
	.st61{fill:#337180;}
	.st62{fill:#36160D;}
	.st63{fill:#6EBD44;}
	.st64{fill:#6EC9AB;}
	.st65{fill:#00A31F;}
	.st66{fill:#D5C427;}
	.st67{fill:#D69D61;}
	.st68{fill:#D6A972;}
	.st69{fill:#D78628;}
	.st70{fill:#3F3E40;}
	.st71{fill:#A2A29B;}
	.st72{fill:#A3D5E0;}
	.st73{fill:#A47E46;}
	.st74{fill:#77B7B7;}
	.st75{fill:#DB6414;}
	.st76{fill:#DBA375;}
	.st77{fill:#DCB282;}
	.st78{fill:#DCEFED;}
	.st79{fill:#A9D5D0;}
	.st80{fill:#DDAA7C;}
	.st81{fill:#DE6A35;}
	.st82{fill:#DFC65F;}
	.st83{fill:#444343;}
	.st84{fill:#448A96;}
]]>
</style>
<g>
	<g>
		<circle class="st30" cx="68.417" cy="68.418" r="63.333"/>
	</g>
	<g>
		<path class="st38" d="M25.992,115.435c-0.293-9.316-0.582-19.547-0.864-19.938c1.659-2.256,6.843-7.525,21.283-12.432
			c-2.465-0.852-5.31-1.691-8.598-2.482c0-3.92-0.391-6.27-0.391-6.27s5.096-7.056,5.486-16.857c0-1.559,0.766-12.611-12.542-13.111
			c0,0,0-0.012,0-0.016c-0.033,0-0.063,0.006-0.099,0.006c-0.034,0-0.063-0.006-0.097-0.006c0,0.004,0,0.012,0,0.012
			c-13.306,0.504-12.543,11.557-12.543,13.115c0.391,9.801,5.487,16.857,5.487,16.857s-0.394,2.35-0.394,6.27
			c-6.769,1.631-11.67,3.459-15.209,5.193C10.807,97.355,17.298,107.585,25.992,115.435z"/>
		<path class="st38" d="M114.922,74.314c0,0,5.096-7.056,5.486-16.857c0-1.559,0.766-12.611-12.542-13.111c0,0,0-0.012,0-0.016
			c-0.033,0-0.063,0.006-0.099,0.006c-0.034,0-0.063-0.006-0.097-0.006c0,0.004,0,0.012,0,0.012
			c-13.306,0.504-12.543,11.557-12.543,13.115c0.391,9.801,5.487,16.857,5.487,16.857s-0.394,2.35-0.394,6.27
			c-3.633,0.875-6.728,1.807-9.363,2.752c14.316,4.992,19.21,10.297,20.664,12.379c-0.146,0.201-0.567,10.57-0.718,19.721
			c8.701-7.934,15.438-18.48,18.657-30.16c-3.441-1.582-8.03-3.219-14.149-4.691C115.313,76.664,114.922,74.314,114.922,74.314z"/>
		<path class="st21" d="M25.992,115.435c0,0.027,0.002,0.057,0.002,0.084c0.044,0.01,0.087,0.02,0.13,0.029
			C26.081,115.509,26.035,115.474,25.992,115.435z"/>
		<path class="st35" d="M111.669,95.498c-1.348-6.588-6.843-7.525-21.283-12.432c-3.292-1.119-7.063-2.219-11.386-3.258
			c0-5.43-0.546-8.684-0.546-8.684s7.057-9.771,7.597-23.341c0-2.156-0.618-18.16-17.743-18.16s-17.563,16.004-17.563,18.16
			c0.54,13.57,7.597,23.341,7.597,23.341s-0.546,3.254-0.546,8.684c-4.322,1.039-8.094,2.139-11.386,3.258
			c-14.44,4.906-19.936,5.844-21.283,12.432c-0.353,1.725,0.571,10.621,0.864,19.938c0.043,0.039,0.089,0.074,0.132,0.113
			c11.206,10.063,26.015,16.193,42.258,16.201l0,0c0.006,0,0.011,0,0.017,0s0.012,0,0.018,0l0,0
			c16.243-0.008,31.052-6.139,42.258-16.201c0.043-0.039,0.089-0.074,0.132-0.113C111.098,106.119,112.022,97.222,111.669,95.498z"
			/>
	</g>
</g>
</svg>
