<?xml version="1.0" encoding="utf-8"?>
<!-- Generator: Adobe Illustrator 16.0.0, SVG Export Plug-In . SVG Version: 6.00 Build 0)  -->
<!DOCTYPE svg PUBLIC "-//W3C//DTD SVG 1.1//EN" "http://www.w3.org/Graphics/SVG/1.1/DTD/svg11.dtd">
<svg version="1.1" id="Layer_1" xmlns="http://www.w3.org/2000/svg" xmlns:xlink="http://www.w3.org/1999/xlink" x="0px" y="0px"
	 width="136.833px" height="136.834px" viewBox="0 0 136.833 136.834" style="enable-background:new 0 0 136.833 136.834;"
	 xml:space="preserve">
<style type="text/css">
<![CDATA[
	.st0{fill:#46898D;}
	.st1{fill:#48888C;}
	.st2{fill:#48A1AF;}
	.st3{fill-rule:evenodd;clip-rule:evenodd;fill:#3F3E3D;}
	.st4{fill:#7F807D;}
	.st5{fill:#E26917;}
	.st6{fill:#E2A976;}
	.st7{fill:#E57428;}
	.st8{fill:#4ABC96;}
	.st9{fill:#E5AA17;}
	.st10{fill:#E5BDA1;}
	.st11{fill-rule:evenodd;clip-rule:evenodd;fill:#DAECEF;}
	.st12{fill:#4C4B49;}
	.st13{fill:#4D4C4C;}
	.st14{fill:#B16227;}
	.st15{fill:#B2723A;}
	.st16{fill:#1A5B37;}
	.st17{fill:#EA4949;}
	.st18{fill:#EAC2A0;}
	.st19{fill:#EACE57;}
	.st20{fill:#EACF60;}
	.st21{fill:#509BA3;}
	.st22{fill:#EE6D6D;}
	.st23{fill:#EED877;}
	.st24{fill:#557F0D;}
	.st25{fill:#BA7842;}
	.st26{fill:#8B401E;}
	.st27{fill:#BE7C3F;}
	.st28{fill:#22A85B;}
	.st29{fill-rule:evenodd;clip-rule:evenodd;fill:#827159;}
	.st30{fill:#F47C2C;}
	.st31{fill:#F4C82E;}
	.st32{fill:#F4E12B;}
	.st33{fill:#5A8AA3;}
	.st34{fill:#F5C82D;}
	.st35{fill:#F69656;}
	.st36{fill:#F7A1A1;}
	.st37{fill:#5D250E;}
	.st38{fill:#F98646;}
	.st39{fill:#C17E42;}
	.st40{fill:#93783D;}
	.st41{fill:#C4C3B7;}
	.st42{fill:#C68A4F;}
	.st43{fill:#2D734E;}
	.st44{opacity:0.6;}
	.st45{fill:#2FA379;}
	.st46{fill:#FFFFFF;}
	.st47{fill:#64A80D;}
	.st48{fill:none;}
	.st49{fill:#66321C;}
	.st50{fill-rule:evenodd;clip-rule:evenodd;fill:#5B4F3F;}
	.st51{fill:#9B7542;}
	.st52{fill:#CD9251;}
	.st53{fill:#9E7640;}
	.st54{fill:#9EDADA;}
	.st55{fill:#CE0202;}
	.st56{fill:#CE945F;}
	.st57{fill:#9F6029;}
	.st58{fill:#CEA16F;}
	.st59{fill:#CEA272;}
	.st60{fill:#333333;}
	.st61{fill:#337180;}
	.st62{fill:#36160D;}
	.st63{fill:#6EBD44;}
	.st64{fill:#6EC9AB;}
	.st65{fill:#00A31F;}
	.st66{fill:#D5C427;}
	.st67{fill:#D69D61;}
	.st68{fill:#D6A972;}
	.st69{fill:#D78628;}
	.st70{fill:#3F3E40;}
	.st71{fill:#A2A29B;}
	.st72{fill:#A3D5E0;}
	.st73{fill:#A47E46;}
	.st74{fill:#77B7B7;}
	.st75{fill:#DB6414;}
	.st76{fill:#DBA375;}
	.st77{fill:#DCB282;}
	.st78{fill:#DCEFED;}
	.st79{fill:#A9D5D0;}
	.st80{fill:#DDAA7C;}
	.st81{fill:#DE6A35;}
	.st82{fill:#DFC65F;}
	.st83{fill:#444343;}
	.st84{fill:#448A96;}
]]>
</style>
<g>
	<g>
		<circle class="st72" cx="68.417" cy="68.417" r="63.333"/>
	</g>
	<g>
		<g>
			<g>
				<g>
					<path class="st59" d="M78.332,84.462c-0.322,3.902-4.033,6.607-8.285,6.043l0,0c-4.256-0.566-7.443-4.188-7.119-8.091
						l1.352-16.343c0.321-3.902,4.031-6.609,8.285-6.043l0,0c4.256,0.563,7.441,4.186,7.119,8.088L78.332,84.462z"/>
					<path class="st68" d="M84.329,62.484c0.571,6.58-4.718,11.977-11.813,12.057l0,0c-7.098,0.08-13.311-5.189-13.883-11.77
						l-2.387-27.557c-0.571-6.578,4.719-11.977,11.814-12.056l0,0c7.096-0.079,13.31,5.188,13.881,11.769L84.329,62.484z"/>
				</g>
				<path class="st26" d="M54.792,35.984c0,0,1.391,18.492,2.75,14.312c7.436-22.841,28.878-13.567,29.669-16.292l-5.253-0.746
					c0,0,5.404-1.463,5.705-4.07C87.664,29.187,57.246,12.277,54.792,35.984z"/>
			</g>
		</g>
		<g>
			<path class="st41" d="M67.138,131.718c0.427,0.008,0.849,0.032,1.277,0.032c5.775,0,11.363-0.788,16.68-2.235l-6.93-49.342
				l-15.207,2.611L67.138,131.718z"/>
			<polygon class="st41" points="47.979,86.692 48.088,86.673 59.677,83.347 58.369,83.572 			"/>
			<polygon class="st4" points="59.677,83.347 62.958,82.785 62.927,82.415 			"/>
			<polygon class="st4" points="47.058,86.968 48.088,86.673 47.979,86.692 			"/>
			<g>
				<path class="st4" d="M59.677,83.347l-11.589,3.326l-1.03,0.295l0.921-0.276l-5.634,0.983l-11.662,31.606
					c3.056,2.271,6.325,4.266,9.769,5.964l7.187-22.228l0.082,2.271l-0.257,22.896c6.178,2.165,12.791,3.396,19.675,3.532
					l-4.18-48.934L59.677,83.347z"/>
				<path class="st4" d="M113.33,113.064l-11.6-35.297l-15.082,1.699l0.005,0.012l-8.487,0.695l6.93,49.342
					c3.876-1.057,7.604-2.463,11.146-4.199l-1.852-27.71l9.834,23.046C107.493,118.406,110.542,115.867,113.33,113.064z"/>
			</g>
		</g>
	</g>
	<g>
		<path class="st71" d="M72.67,90.857c0.046,0.314,2.903,20.006,4.213,40.313c0.33-0.044,0.664-0.077,0.992-0.126
			c-1.314-20.344-4.169-40.019-4.215-40.332L72.67,90.857z"/>
	</g>
</g>
</svg>
