<?xml version="1.0" encoding="utf-8"?>
<!-- Generator: Adobe Illustrator 16.0.0, SVG Export Plug-In . SVG Version: 6.00 Build 0)  -->
<!DOCTYPE svg PUBLIC "-//W3C//DTD SVG 1.1//EN" "http://www.w3.org/Graphics/SVG/1.1/DTD/svg11.dtd">
<svg version="1.1" id="Layer_1" xmlns="http://www.w3.org/2000/svg" xmlns:xlink="http://www.w3.org/1999/xlink" x="0px" y="0px"
	 width="136.833px" height="136.833px" viewBox="0 0 136.833 136.833" style="enable-background:new 0 0 136.833 136.833;"
	 xml:space="preserve">
<style type="text/css">
<![CDATA[
	.st0{fill:#473D2E;}
	.st1{opacity:0.25;fill:#EFEFEF;}
	.st2{fill:#7B6854;}
	.st3{fill:#AAAAAA;}
	.st4{fill:#48B15A;}
	.st5{fill:#49A0AE;}
	.st6{fill:#AD2728;}
	.st7{fill:none;stroke:#888887;stroke-miterlimit:10;}
	.st8{fill-rule:evenodd;clip-rule:evenodd;fill:#3F3F3E;}
	.st9{fill-rule:evenodd;clip-rule:evenodd;fill:#3F7D92;}
	.st10{fill:#AEACAC;}
	.st11{fill:#E58E8F;}
	.st12{fill:#4ABC96;}
	.st13{fill:#E5E65D;}
	.st14{fill:#4B4A4B;}
	.st15{fill:#E6E768;}
	.st16{fill:#E79E2D;}
	.st17{fill:#E7E7E7;}
	.st18{fill:#E84849;}
	.st19{fill:#E8E7E7;}
	.st20{fill:#4E4E4E;}
	.st21{fill:#E9E4B1;}
	.st22{fill:#E9E9EA;}
	.st23{fill:#80702C;}
	.st24{fill:#807F7F;}
	.st25{fill:#818282;}
	.st26{fill:#82725A;}
	.st27{opacity:0.15;}
	.st28{fill:#83CECA;}
	.st29{fill:#B3DCE2;}
	.st30{fill:#1A3940;}
	.st31{fill:#B5B6B6;}
	.st32{fill:#B6E2EB;}
	.st33{fill:#886A29;}
	.st34{fill:#EBEDEF;}
	.st35{fill:#EBF6F9;}
	.st36{fill-rule:evenodd;clip-rule:evenodd;fill:#7D8880;}
	.st37{fill:#B9B9BA;}
	.st38{fill:#EDC92C;}
	.st39{fill:#504A2A;}
	.st40{fill:#EFC849;}
	.st41{fill:#55B966;}
	.st42{fill-rule:evenodd;clip-rule:evenodd;fill:#4B4A4B;}
	.st43{fill:#577D87;}
	.st44{fill:#58595A;}
	.st45{fill:#BBBCBB;}
	.st46{fill-rule:evenodd;clip-rule:evenodd;fill:#E84849;}
	.st47{fill:#202121;}
	.st48{fill:#F06668;}
	.st49{fill:#BFBEBE;}
	.st50{fill-rule:evenodd;clip-rule:evenodd;fill:#82725A;}
	.st51{fill:#231F20;}
	.st52{fill:#F2BE3E;}
	.st53{fill:#F2DE62;}
	.st54{fill:#F2EF8F;}
	.st55{fill:#F4E028;}
	.st56{fill:#5A5B5D;}
	.st57{fill-rule:evenodd;clip-rule:evenodd;fill:#B5B2B3;}
	.st58{opacity:0.4;clip-path:url(#SVGID_4_);fill:url(#SVGID_5_);}
	.st59{fill:#5B4F3F;}
	.st60{fill:#F6A2A3;}
	.st61{fill:#F6F6E7;}
	.st62{fill:#F7D98B;}
	.st63{fill:#5E8492;}
	.st64{fill:#F9F29A;}
	.st65{fill:#969595;}
	.st66{fill:#988534;}
	.st67{fill:#99999A;}
	.st68{fill:#FDF2F7;}
	.st69{fill:#FDF7FA;}
	.st70{fill:#2F6E77;}
	.st71{fill:#2F8442;}
	.st72{fill:#606060;}
	.st73{fill:#60C3B6;}
	.st74{fill-rule:evenodd;clip-rule:evenodd;fill:#F06668;}
	.st75{fill:none;stroke:#818282;stroke-miterlimit:10;}
	.st76{fill:#FFFFFF;}
	.st77{fill:#626463;}
	.st78{fill:#63BD6E;}
	.st79{fill-rule:evenodd;clip-rule:evenodd;fill:#245861;}
	.st80{fill:none;}
	.st81{fill:#9A866F;}
	.st82{clip-path:url(#SVGID_2_);fill:#90B9C0;}
	.st83{fill-rule:evenodd;clip-rule:evenodd;fill:#5B4F3F;}
	.st84{fill:#9B7842;}
	.st85{fill:#67B7C3;}
	.st86{fill:#67B8CB;}
	.st87{fill:#CC2027;}
	.st88{fill:#CDCDCE;}
	.st89{fill:#CE2F2E;}
	.st90{fill:#9F77AA;}
	.st91{opacity:0.7;fill:#FFFFFF;}
	.st92{fill-rule:evenodd;clip-rule:evenodd;fill:#C0BEBF;}
	.st93{fill:#333535;}
	.st94{fill:#357180;}
	.st95{opacity:0.4;clip-path:url(#SVGID_10_);fill:url(#SVGID_11_);}
	.st96{clip-path:url(#SVGID_2_);fill:#FFFFFF;}
	.st97{fill:#6CC077;}
	.st98{fill:#6EC2CB;}
	.st99{fill:#020202;}
	.st100{fill:#D32027;}
	.st101{fill:#D4A160;}
	.st102{fill:#D6E4F4;}
	.st103{fill:#D7D7D7;}
	.st104{fill:#D88080;}
	.st105{opacity:0.4;clip-path:url(#SVGID_7_);fill:url(#SVGID_8_);}
	.st106{fill-rule:evenodd;clip-rule:evenodd;fill:#CDCCCB;}
	.st107{fill:#A07238;}
	.st108{fill:#A2D4DE;}
	.st109{fill:#A3D4AA;}
	.st110{fill:#74C59C;}
	.st111{fill-rule:evenodd;clip-rule:evenodd;fill:#357180;}
	.st112{fill:#A4A5A4;}
	.st113{fill:#A5B6B9;}
	.st114{fill:#DAC425;}
	.st115{fill:#DBF0F5;}
	.st116{fill:#0EA24A;}
	.st117{fill:#DDDDDC;}
	.st118{fill:#DDDFDF;}
	.st119{fill:#40BCA3;}
	.st120{fill:#43A0AA;}
]]>
</style>
<g>
	<g>
		<g>
			<circle class="st12" cx="63.333" cy="68.416" r="63.333"/>
		</g>
	</g>
	<g>
		<path class="st26" d="M63.807,30.454c-1.446,0-2.621,1.173-2.621,2.621v59.796c0,1.448,1.175,2.621,2.621,2.621
			c1.448,0,2.621-1.173,2.621-2.621V33.075C66.428,31.626,65.255,30.454,63.807,30.454z"/>
		<path class="st26" d="M62.729,92.099c-0.799,0.798-0.799,2.093,0,2.892l17.038,17.039c0.799,0.798,2.094,0.798,2.893,0
			c0.799-0.799,0.799-2.093,0-2.892L65.622,92.099C64.823,91.3,63.528,91.3,62.729,92.099z"/>
		<path class="st26" d="M65.069,92.099c0.799,0.798,0.799,2.093,0,2.892l-17.038,17.039c-0.798,0.798-2.094,0.798-2.891,0
			c-0.8-0.799-0.8-2.093,0-2.892l17.038-17.038C62.976,91.3,64.271,91.3,65.069,92.099z"/>
		<path class="st64" d="M100.625,79.949c0,5.423-4.396,1.637-9.818,1.637H37.625c-5.422,0-9.818,3.786-9.818-1.637V39.04
			c0-5.422,4.396-2.455,9.818-2.455h53.182c5.422,0,9.818-2.968,9.818,2.455V79.949z"/>
		<g>
			<rect x="68.751" y="48.005" class="st23" width="27.419" height="1.735"/>
			<rect x="68.847" y="52.355" class="st23" width="27.416" height="1.733"/>
			<rect x="68.832" y="56.96" class="st23" width="27.419" height="1.735"/>
			<rect x="68.832" y="61.42" class="st23" width="15.116" height="1.736"/>
			<path class="st66" d="M58.319,52.115c-0.163-0.521-0.64-0.871-1.232-0.871c-0.002,0-0.002,0-0.003,0
				c-0.56,0.022-1.039,0.419-1.163,0.965l-2.606,11.427l-3.608-17.364c-0.118-0.563-0.603-0.969-1.22-0.988
				c-0.553,0-1.045,0.373-1.196,0.909l-3.454,12.404l-3.41-3.412c-0.471-0.47-1.289-0.47-1.759,0l-5.351,5.349l1.76,1.76l4.47-4.471
				l4.039,4.04c0.309,0.305,0.782,0.434,1.195,0.323c0.426-0.112,0.765-0.446,0.881-0.87l2.651-9.522l3.728,17.936
				c0.12,0.578,0.615,0.985,1.21,0.991h0.007c0.583,0,1.082-0.397,1.213-0.967l2.849-12.496l1.979,6.326l2.373-0.741L58.319,52.115z
				"/>
		</g>
		<path class="st26" d="M104.307,35.534c0,1.355-1.539,2.455-3.438,2.455H26.745c-1.898,0-3.438-1.099-3.438-2.455l0,0
			c0-1.356,1.54-2.455,3.438-2.455h74.123C102.768,33.079,104.307,34.178,104.307,35.534L104.307,35.534z"/>
		<path class="st26" d="M104.307,81.002c0,1.355-1.539,2.455-3.438,2.455H26.745c-1.898,0-3.438-1.1-3.438-2.455l0,0
			c0-1.356,1.54-2.455,3.438-2.455h74.123C102.768,78.547,104.307,79.646,104.307,81.002L104.307,81.002z"/>
	</g>
</g>
</svg>
